<svg width="18" height="18" viewBox="0 0 18 18" fill="none" xmlns="http://www.w3.org/2000/svg">
<path fill-rule="evenodd" clip-rule="evenodd" d="M9 16.5C4.85786 16.5 1.5 13.1421 1.5 9C1.5 4.85786 4.85786 1.5 9 1.5C13.1421 1.5 16.5 4.85786 16.5 9C16.5 13.1421 13.1421 16.5 9 16.5ZM8.25 5.25V9.75H9.75V5.25H8.25ZM9 12.75C8.48223 12.75 8.0625 12.3303 8.0625 11.8125C8.0625 11.2947 8.48223 10.875 9 10.875C9.51777 10.875 9.9375 11.2947 9.9375 11.8125C9.9375 12.3303 9.51777 12.75 9 12.75Z" fill="#7DD27C"/>
</svg>
