<svg width="48" height="48" viewBox="0 0 48 48" fill="none" xmlns="http://www.w3.org/2000/svg">
<rect width="48" height="48" rx="12" fill="#F2F8E7"/>
<path d="M32 17.01H30C29.03 17.01 28.39 17.5 28.12 18.34H28V15H26V17.01H24C23.03 17.01 22.39 17.5 22.12 18.34H22V15H20V17H16C15.42 17 15 17.41 15 18V32C15 32.59 15.41 33 16 33H32C32.59 33 33 32.59 33 32V18C33 17.41 32.59 17.01 32 17.01ZM31 31H17V25H31V31ZM31 23H17V19H20V21H22V20.01C22 19.46 22.35 19.01 23 19.01H26V21H28V20.01C28 19.46 28.35 19.01 29 19.01H31V23Z" fill="#A5D05F"/>
<path d="M28 29.61C28.89 29.61 29.61 28.9 29.61 28.01C29.61 27.12 28.89 26.4 28 26.4C27.12 26.4 26.4 27.12 26.4 28.01C26.4 28.89 27.12 29.61 28 29.61Z" fill="#A5D05F"/>
</svg>
