<svg width="48" height="48" viewBox="0 0 48 48" fill="none" xmlns="http://www.w3.org/2000/svg">
<rect width="48" height="48" rx="12" fill="#FDEFF5"/>
<path d="M17.91 31.93C18.26 32.2 18.62 32.44 19 32.66C19.38 32.88 19.77 33.07 20.17 33.24L20.94 31.39C20.62 31.26 20.3 31.1 20 30.93C19.7 30.75 19.41 30.56 19.13 30.35L17.91 31.93ZM15.34 29C15.12 28.62 14.93 28.23 14.76 27.83L16.61 27.06C16.74 27.38 16.9 27.7 17.07 28C17.25 28.3 17.44 28.59 17.65 28.87L16.07 30.09C15.8 29.74 15.56 29.38 15.34 29ZM14.09 22.69C14.03 23.13 14 23.56 14 24C14 24.44 14.03 24.87 14.09 25.31L16.07 25.04C16.02 24.7 16 24.35 16 24C16 23.65 16.02 23.3 16.07 22.96L14.09 22.69ZM15.34 19C15.56 18.62 15.8 18.26 16.07 17.91L17.65 19.13C17.44 19.41 17.25 19.7 17.07 20C16.9 20.3 16.74 20.62 16.61 20.94L14.76 20.17C14.93 19.77 15.12 19.38 15.34 19ZM20.17 14.76C19.77 14.93 19.38 15.12 19 15.34C18.62 15.56 18.26 15.8 17.91 16.07L19.13 17.65C19.41 17.44 19.7 17.25 20 17.07C20.3 16.9 20.62 16.74 20.94 16.61L20.17 14.76ZM22.69 33.91L22.96 31.93C23.3 31.98 23.65 32 24 32C28.42 32 32 28.42 32 24C32 19.58 28.42 16 24 16C23.66 16 23.32 16.02 22.99 16.06L22.72 14.08C23.14 14.03 23.57 14 24 14C29.52 14 34 18.48 34 24C34 29.52 29.52 34 24 34C23.56 34 23.12 33.97 22.69 33.91ZM23.72 24.21C24.91 23.94 25.61 24.25 26.49 25.13L28.21 26.84L26.79 28.26L23.59 25.05C23.22 24.67 23 24.17 23 23.64V18.01H25V21.61C25 22.85 24.69 23.45 23.67 24.11L23.72 24.21Z" fill="#F095BA"/>
</svg>
