<svg width="43" height="24" viewBox="0 0 43 24" fill="none" xmlns="http://www.w3.org/2000/svg">
<g clip-path="url(#clip0_2488_109441)">
<path d="M33.2391 12.2224C33.2391 11.4436 32.738 10.9877 32.015 10.9877C31.2697 10.9877 30.7691 11.455 30.7691 12.2337C30.7691 12.9678 31.2697 13.5024 32.015 13.5024C32.7939 13.5024 33.2391 12.9237 33.2391 12.2224ZM35.3974 12.2224C35.3974 13.9581 33.9512 15.104 32.0038 15.104C29.9902 15.104 28.5215 13.8914 28.5215 11.1433C28.5215 8.78475 30.0279 6.84113 32.2568 6.80404C33.233 6.80404 35.3312 6.75784 35.3312 6.75784L34.3865 8.49242C34.3865 8.49242 32.7151 8.49511 32.4937 8.49511C31.5317 8.49511 30.6577 9.21855 30.5351 10.2089C31.0469 9.7304 31.7257 9.45212 32.5491 9.45212C34.3295 9.45212 35.3974 10.5427 35.3974 12.2224Z" fill="#2B2D33"/>
<path d="M26.8542 13.0623C26.8542 13.0623 26.3458 13.3484 25.5871 13.4032C24.7141 13.4279 23.9377 12.8909 23.9377 11.9341C23.9377 11.0001 24.6244 10.4655 25.5651 10.4655C26.1426 10.4655 26.907 10.8568 26.907 10.8568C26.907 10.8568 27.4655 9.85422 27.7553 9.35359C27.2255 8.96032 26.5182 8.74514 25.6979 8.74514C23.6246 8.74514 22.0195 10.0663 22.0195 11.9224C22.0195 13.8016 23.5283 15.0927 25.6979 15.0533C26.3048 15.0306 27.1413 14.8233 27.6506 14.5038L26.8542 13.0623Z" fill="#2B2D33"/>
<path d="M0.0507812 5.23238L2.95665 10.4089L2.9568 13.5651L0.0555663 18.7314L0.0507812 5.23238Z" fill="#5454AE"/>
<path d="M11.2051 8.52509L13.9269 6.86199L19.4964 6.8578L11.2051 11.9219V8.52509Z" fill="#DD1059"/>
<path d="M11.1896 5.2025L11.2047 12.0547L8.29297 10.2718V0.027173L11.1896 5.2025Z" fill="#F9AD1C"/>
<path d="M19.4958 6.85763L13.9263 6.86182L11.1896 5.20245L8.29297 0.0271249L19.4958 6.85763Z" fill="#F36228"/>
<path d="M11.2042 18.7607V15.4356L8.29297 13.6863L8.29342 23.9399L11.2042 18.7607Z" fill="#58C034"/>
<path d="M13.9198 17.1128L2.95665 10.4091L0.0507812 5.23257L19.4849 17.1064L13.9198 17.1128Z" fill="#3E88D0"/>
<path d="M8.29297 23.9399L11.2038 18.7607L13.9188 17.1129L19.484 17.1064L8.29297 23.9399Z" fill="#27843B"/>
<path d="M0.0546875 18.7314L8.31532 13.6862L5.53745 11.9875L2.95577 13.5649L0.0546875 18.7314Z" fill="#8D3CA2"/>
<path d="M42.6251 8.90235V14.8638H40.5222V10.6825H38.4974V14.8638H36.3945V8.90235H42.6251Z" fill="#2B2D33"/>
</g>
<defs>
<clipPath id="clip0_2488_109441">
<rect width="42.729" height="24" fill="white"/>
</clipPath>
</defs>
</svg>
