<svg width="40" height="40" viewBox="0 0 40 40" fill="none" xmlns="http://www.w3.org/2000/svg">
<path fill-rule="evenodd" clip-rule="evenodd" d="M20 40C31.0457 40 40 31.0457 40 20C40 8.9543 31.0457 0 20 0C8.9543 0 0 8.9543 0 20C0 31.0457 8.9543 40 20 40Z" fill="#A04242"/>
<path d="M22 23.5C22.8284 23.5 23.5 22.8284 23.5 22C23.5 21.1716 22.8284 20.5 22 20.5C21.1716 20.5 20.5 21.1716 20.5 22C20.5 22.8284 21.1716 23.5 22 23.5Z" fill="#FDBBBB"/>
<path fill-rule="evenodd" clip-rule="evenodd" d="M18 20V18H14V17H17C18.7 17 20 15.7 20 14C20 12.3 18.7 11 17 11H12V15H10V17H12V18H10V20H12V23H14V18.6H14.1C14.2 19.5 14.8 20 15.9 20H18ZM14 13H17C17.6 13 18 13.4 18 14C18 14.6 17.6 15 17 15H14V13Z" fill="#FDBBBB"/>
<path d="M22 23.5C22.8284 23.5 23.5 22.8284 23.5 22C23.5 21.1716 22.8284 20.5 22 20.5C21.1716 20.5 20.5 21.1716 20.5 22C20.5 22.8284 21.1716 23.5 22 23.5Z" fill="#FDBBBB"/>
<path d="M28.2006 19.4001L29.5006 20.1001C29.8006 20.2001 30.0006 20.6001 29.9006 21.0001V23.1001C29.9006 23.5001 29.7006 23.8001 29.3006 24.0001L28.0006 24.6001L28.4006 25.9001C28.6006 26.2001 28.5006 26.6001 28.2006 26.9001L26.8006 28.3001C26.6006 28.5001 26.2006 28.6001 25.8006 28.5001L24.5006 28.1001L23.9006 29.4001C23.7006 29.8001 23.4006 30.0001 23.0006 30.0001H20.8006C20.4006 30.0001 20.1006 29.7001 19.9006 29.4001L19.3006 28.1001L18.0006 28.5001C17.7006 28.7001 17.3006 28.6001 17.0006 28.3001L15.6006 26.9001C15.4006 26.7001 15.3006 26.3001 15.4006 25.9001L16.1006 23.8001L18.0006 24.4001L17.6006 26.0001L18.1006 26.5001L18.8006 26.3001C19.7006 26.0001 20.8006 26.4001 21.2006 27.3001L21.6006 28.0001H22.4006L22.9006 27.2001C23.3006 26.3001 24.3006 25.9001 25.3006 26.2001L26.0006 26.4001L26.5006 25.9001L26.3006 25.2001C25.9006 24.3001 26.4006 23.2001 27.3006 22.8001L28.0006 22.4001V21.6001L27.2006 21.2001C26.3006 20.8001 25.9006 19.8001 26.2006 18.8001L26.4006 18.1001L25.9006 17.6001L25.2006 17.8001C24.3006 18.2001 23.2006 17.7001 22.8006 16.8001L22.2006 15.5001L24.0006 14.6001L24.7006 15.9001L26.0006 15.5001C26.3006 15.3001 26.7006 15.4001 27.0006 15.7001L28.4006 17.1001C28.6006 17.3001 28.7006 17.7001 28.6006 18.1001L28.2006 19.4001Z" fill="#FDBBBB"/>
</svg>
