<svg width="81" height="80" viewBox="0 0 81 80" fill="none" xmlns="http://www.w3.org/2000/svg">
<path d="M0.5 40C0.5 21.1438 0.5 11.7157 6.35786 5.85786C12.2157 0 21.6438 0 40.5 0C59.3562 0 68.7843 0 74.6421 5.85786C80.5 11.7157 80.5 21.1438 80.5 40C80.5 58.8562 80.5 68.2843 74.6421 74.1421C68.7843 80 59.3562 80 40.5 80C21.6438 80 12.2157 80 6.35786 74.1421C0.5 68.2843 0.5 58.8562 0.5 40Z" fill="#E7F8F4"/>
<path d="M33.5543 43.8011L28.7543 39.0011L26.4043 41.3678L34.7376 49.6844C35.4376 50.3678 36.3876 50.3844 37.0876 49.6844L56.4543 30.3178L54.1043 27.9678L34.3376 47.7178L34.1876 47.5678C34.9043 46.2344 34.6376 44.8844 33.5543 43.8011Z" fill="#5ED1B6"/>
</svg>
