<svg width="72" height="48" viewBox="0 0 72 48" fill="none" xmlns="http://www.w3.org/2000/svg">
<rect width="72" height="48" rx="24" fill="#F4F4F4"/>
<g clip-path="url(#clip0_2411_119287)">
<path d="M49.3386 23.7503C49.3386 22.8742 48.7757 22.3613 47.9636 22.3613C47.1263 22.3613 46.564 22.887 46.564 23.7631C46.564 24.5889 47.1263 25.1903 47.9636 25.1903C48.8386 25.1903 49.3386 24.5393 49.3386 23.7503ZM51.7632 23.7503C51.7632 25.7031 50.1385 26.9922 47.951 26.9922C45.689 26.9922 44.0391 25.6281 44.0391 22.5364C44.0391 19.883 45.7313 17.6965 48.2352 17.6547C49.3317 17.6547 51.6888 17.6027 51.6888 17.6027L50.6275 19.5542C50.6275 19.5542 48.75 19.5572 48.5013 19.5572C47.4206 19.5572 46.4388 20.371 46.3011 21.4852C46.8761 20.9469 47.6385 20.6338 48.5636 20.6338C50.5635 20.6338 51.7632 21.8607 51.7632 23.7503Z" fill="#2B2D33"/>
<path d="M42.1655 24.6947C42.1655 24.6947 41.5943 25.0165 40.742 25.0782C39.7614 25.106 38.8892 24.5019 38.8892 23.4254C38.8892 22.3747 39.6606 21.7733 40.7173 21.7733C41.3661 21.7733 42.2248 22.2135 42.2248 22.2135C42.2248 22.2135 42.8522 21.0856 43.1777 20.5224C42.5826 20.0799 41.788 19.8379 40.8665 19.8379C38.5375 19.8379 36.7344 21.3241 36.7344 23.4123C36.7344 25.5264 38.4293 26.9788 40.8665 26.9346C41.5483 26.909 42.488 26.6758 43.0601 26.3163L42.1655 24.6947Z" fill="#2B2D33"/>
<path d="M12.0547 15.8868L15.319 21.7104L15.3192 25.2611L12.0601 31.0732L12.0547 15.8868Z" fill="#5454AE"/>
<path d="M24.5859 19.5907L27.6435 17.7197L33.9 17.715L24.5859 23.4121V19.5907Z" fill="#DD1059"/>
<path d="M24.5703 15.8528L24.5873 23.5615L21.3164 21.5558V10.0306L24.5703 15.8528Z" fill="#F9AD1C"/>
<path d="M33.9012 17.715L27.6447 17.7197L24.5703 15.8529L21.3164 10.0307L33.9012 17.715Z" fill="#F36228"/>
<path d="M24.5868 31.106V27.3652L21.3164 25.3973L21.3169 36.9326L24.5868 31.106Z" fill="#58C034"/>
<path d="M27.6346 29.252L15.319 21.7103L12.0547 15.8867L33.8862 29.2447L27.6346 29.252Z" fill="#3E88D0"/>
<path d="M21.3164 36.9326L24.5863 31.106L27.6363 29.2522L33.888 29.2449L21.3164 36.9326Z" fill="#27843B"/>
<path d="M12.0625 31.0732L21.3422 25.3974L18.2216 23.4863L15.3215 25.2609L12.0625 31.0732Z" fill="#8D3CA2"/>
<path d="M59.882 20.0151V26.7217H57.5197V22.0178H55.2451V26.7217H52.8828V20.0151H59.882Z" fill="#2B2D33"/>
</g>
<defs>
<clipPath id="clip0_2411_119287">
<rect width="48" height="27" fill="white" transform="translate(12 10)"/>
</clipPath>
</defs>
</svg>
