<svg width="36" height="36" viewBox="0 0 36 36" fill="none" xmlns="http://www.w3.org/2000/svg">
<g clip-path="url(#clip0_2136_14697)">
<circle cx="18" cy="18" r="17" fill="white"/>
<path d="M28.4852 15.9881C22.7705 12.5943 13.3442 12.2823 7.88884 13.938C7.01276 14.2039 6.0863 13.7091 5.82093 12.8333C5.5554 11.9567 6.04943 11.0309 6.92617 10.7646C13.1886 8.86369 23.5989 9.23079 30.1778 13.1361C30.9657 13.6039 31.2242 14.6216 30.7572 15.4082C30.2898 16.1962 29.2713 16.4559 28.4852 15.9881ZM28.2981 21.0148C27.8971 21.6654 27.0465 21.8694 26.3968 21.4699C21.6324 18.5413 14.3675 17.693 8.73093 19.4039C7.99999 19.6248 7.22793 19.2127 7.0059 18.4831C6.78566 17.7522 7.198 16.9815 7.92763 16.7592C14.3666 14.8053 22.3713 15.7517 27.8433 19.1145C28.4931 19.5147 28.6976 20.3657 28.2981 21.0148ZM26.1288 25.8423C25.8102 26.3647 25.13 26.5284 24.6094 26.2099C20.4462 23.6655 15.2061 23.0909 9.035 24.5004C8.44033 24.6368 7.84765 24.2642 7.71203 23.6695C7.57582 23.0751 7.94706 22.4823 8.54305 22.3466C15.2963 20.8028 21.0892 21.4672 25.7621 24.3226C26.2831 24.6408 26.4472 25.3214 26.1288 25.8423ZM17.9982 0.271324C8.20705 0.271324 0.269531 8.20868 0.269531 17.9997C0.269531 27.7918 8.20705 35.7285 17.9982 35.7285C27.7896 35.7285 35.7267 27.7918 35.7267 17.9997C35.7267 8.20868 27.7896 0.271324 17.9982 0.271324Z" fill="#1ED760"/>
</g>
<defs>
<clipPath id="clip0_2136_14697">
<rect width="36" height="36" fill="white"/>
</clipPath>
</defs>
</svg>
