<svg width="40" height="40" viewBox="0 0 40 40" fill="none" xmlns="http://www.w3.org/2000/svg">
<path d="M2.45484 4.28669C2.22651 4.28669 2.16149 4.42913 2.32649 4.58579C3.21316 5.47598 3.7715 6.70086 3.7715 8.05393C3.7715 9.40699 3.22149 10.6319 2.33315 11.5149C2.16149 11.6859 2.21982 11.8212 2.54149 11.8212H21.6098C22.6898 10.9239 23.3832 9.56368 23.3832 8.04681C23.3832 6.52994 22.6898 5.17688 21.6098 4.27246H2.46316L2.45484 4.28669Z" fill="#0A1E78"/>
<path d="M2.45484 15.6247C2.22651 15.6247 2.16149 15.767 2.32649 15.9237C3.21316 16.8139 3.7715 18.0389 3.7715 19.3919C3.7715 20.7449 3.22149 21.9699 2.33315 22.8529C2.16149 23.0239 2.21982 23.159 2.54149 23.159H14.1748C15.2548 22.2619 15.9498 20.9015 15.9498 19.3847C15.9498 17.8679 15.2548 16.5149 14.1748 15.6104H2.46316L2.45484 15.6247Z" fill="#0A1E78"/>
<path d="M2.45327 26.9611C2.20994 26.9611 2.15158 27.0964 2.33158 27.2674C3.21825 28.1576 3.76993 29.3753 3.76993 30.7354C3.76993 32.0958 3.21825 33.3134 2.33158 34.1966C2.15992 34.3674 2.2166 34.5028 2.53826 34.5028H6.74493C7.8266 33.6054 8.51994 32.2453 8.51994 30.7284C8.51994 29.2116 7.8266 27.8584 6.74493 26.9541H2.45994L2.45327 26.9611Z" fill="#0A1E78"/>
<path d="M36.9588 4.28711H31.8438C32.9238 5.19153 33.6171 6.53748 33.6171 8.06146C33.6171 9.58544 32.9238 10.9314 31.8438 11.8358H36.9588C38.0388 10.9385 38.7338 9.58544 38.7338 8.06146C38.7338 6.53748 38.0388 5.19153 36.9588 4.28711Z" fill="#FF5500"/>
<path d="M31.8354 4.28711H26.7188C27.8004 5.19153 28.4938 6.53748 28.4938 8.06146C28.4938 9.58544 27.8004 10.9314 26.7188 11.8358H31.8354C32.9154 10.9385 33.6088 9.58544 33.6088 8.06146C33.6088 6.53748 32.9154 5.19153 31.8354 4.28711Z" fill="#6262D9"/>
<path d="M36.9546 15.624H24.4062C25.4862 16.5285 26.1796 17.8744 26.1796 19.3984C26.1796 20.9224 25.4862 22.2684 24.4062 23.1727H36.9546C38.0363 22.2755 38.7296 20.9224 38.7296 19.3984C38.7296 17.8744 38.0363 16.5285 36.9546 15.624Z" fill="#FF5500"/>
<path d="M24.4057 15.624H19.2891C20.3691 16.5285 21.0641 17.8744 21.0641 19.3984C21.0641 20.9224 20.3691 22.2684 19.2891 23.1727H24.4057C25.4857 22.2755 26.179 20.9224 26.179 19.3984C26.179 17.8744 25.4857 16.5285 24.4057 15.624Z" fill="#6262D9"/>
<path d="M26.7166 4.28711H21.6016C22.6816 5.19153 23.3766 6.53748 23.3766 8.06146C23.3766 9.58544 22.6816 10.9314 21.6016 11.8358H26.7166C27.7982 10.9385 28.4916 9.58544 28.4916 8.06146C28.4916 6.53748 27.7982 5.19153 26.7166 4.28711Z" fill="#3D3DC7"/>
<path d="M19.283 15.624H14.168C15.248 16.5285 15.9429 17.8744 15.9429 19.3984C15.9429 20.9224 15.248 22.2684 14.168 23.1727H19.283C20.3646 22.2755 21.0579 20.9224 21.0579 19.3984C21.0579 17.8744 20.3646 16.5285 19.283 15.624Z" fill="#3D3DC7"/>
<path d="M36.9555 26.9609H16.9805C18.0605 27.8653 18.7538 29.2113 18.7538 30.7353C18.7538 32.2593 18.0605 33.6051 16.9805 34.5096H36.9555C38.0371 33.6123 38.7305 32.2593 38.7305 30.7353C38.7305 29.2113 38.0371 27.8653 36.9555 26.9609Z" fill="#FF5500"/>
<path d="M16.9721 26.9609H11.8555C12.9355 27.8653 13.6305 29.2113 13.6305 30.7353C13.6305 32.2593 12.9355 33.6051 11.8555 34.5096H16.9721C18.0521 33.6123 18.7455 32.2593 18.7455 30.7353C18.7455 29.2113 18.0521 27.8653 16.9721 26.9609Z" fill="#6262D9"/>
<path d="M11.8611 26.9609H6.74609C7.82609 27.8653 8.5211 29.2113 8.5211 30.7353C8.5211 32.2593 7.82609 33.6051 6.74609 34.5096H11.8611C12.9428 33.6123 13.6361 32.2593 13.6361 30.7353C13.6361 29.2113 12.9428 27.8653 11.8611 26.9609Z" fill="#3D3DC7"/>
</svg>
