<svg width="81" height="80" viewBox="0 0 81 80" fill="none" xmlns="http://www.w3.org/2000/svg">
<path d="M0.5 40C0.5 21.1438 0.5 11.7157 6.35786 5.85786C12.2157 0 21.6438 0 40.5 0C59.3562 0 68.7843 0 74.6421 5.85786C80.5 11.7157 80.5 21.1438 80.5 40C80.5 58.8562 80.5 68.2843 74.6421 74.1421C68.7843 80 59.3562 80 40.5 80C21.6438 80 12.2157 80 6.35786 74.1421C0.5 68.2843 0.5 58.8562 0.5 40Z" fill="#F0F0FE"/>
<path fill-rule="evenodd" clip-rule="evenodd" d="M29.955 24.8643C31.4884 23.3309 34.0546 23.6468 35.1704 25.5063L38.4026 30.8934C39.1895 32.205 38.9829 33.8838 37.9013 34.9654L36.1906 36.676C36.5402 37.3928 37.4173 38.7761 39.5754 40.9342C41.7335 43.0923 43.1168 43.9694 43.8336 44.319L45.5443 42.6084C46.6258 41.5268 48.3047 41.3201 49.6163 42.1071L55.0033 45.3393C56.8629 46.455 57.1788 49.0212 55.6454 50.5546L51.4644 54.7356C50.537 55.663 49.198 56.2617 47.7304 56.0789C44.8192 55.7163 38.2422 54.2514 32.2065 48.3246C26.1138 42.342 24.7211 35.6436 24.4039 32.7223C24.2471 31.2787 24.8451 29.9743 25.7521 29.0672L29.955 24.8643ZM32.312 27.2213L28.1092 31.4242C27.7921 31.7413 27.6876 32.0849 27.7177 32.3625C27.985 34.8238 29.1841 40.6852 34.5419 45.9462C39.8873 51.1951 45.6812 52.4646 48.1424 52.7711C48.4294 52.8069 48.7845 52.7014 49.1074 52.3786L53.2884 48.1976L47.9013 44.9654L45.9375 46.9292C45.3721 47.4945 44.3402 48.0536 43.1469 47.6404C41.9908 47.2401 40.0876 46.1605 37.2184 43.2913C34.3491 40.422 33.2695 38.5188 32.8692 37.3627C32.4561 36.1694 33.0151 35.1375 33.5804 34.5722L35.5443 32.6084L32.312 27.2213Z" fill="#9A99FB"/>
</svg>
