<svg width="81" height="80" viewBox="0 0 81 80" fill="none" xmlns="http://www.w3.org/2000/svg">
<path d="M0.5 40C0.5 21.1438 0.5 11.7157 6.35786 5.85786C12.2157 0 21.6438 0 40.5 0C59.3562 0 68.7843 0 74.6421 5.85786C80.5 11.7157 80.5 21.1438 80.5 40C80.5 58.8562 80.5 68.2843 74.6421 74.1421C68.7843 80 59.3562 80 40.5 80C21.6438 80 12.2157 80 6.35786 74.1421C0.5 68.2843 0.5 58.8562 0.5 40Z" fill="#F0F0FE"/>
<path d="M20.5 39.5C20.5 32.5964 26.0964 27 33 27H48C54.9036 27 60.5 32.5964 60.5 39.5C60.5 46.4036 54.9036 52 48 52H33C26.0964 52 20.5 46.4036 20.5 39.5Z" fill="#9A99FB"/>
<circle cx="47" cy="39.5" r="6.5" fill="white"/>
</svg>
