<svg width="40" height="40" viewBox="0 0 40 40" fill="none" xmlns="http://www.w3.org/2000/svg">
<path fill-rule="evenodd" clip-rule="evenodd" d="M20 40C31.0457 40 40 31.0457 40 20C40 8.9543 31.0457 0 20 0C8.9543 0 0 8.9543 0 20C0 31.0457 8.9543 40 20 40Z" fill="#50701E"/>
<path d="M30 12.99L12.04 13V12.86C13.5 12.56 14 11.49 14 10H12.01C12 11.33 11.32 12.46 9.72 13.03C9.21 13.21 9 13.55 9 14C9 14.45 9.21 14.79 9.72 14.97C11.32 15.54 12 16.68 12.01 18.01H14C14 16.52 13.5 15.44 12.04 15.14V15L23.02 14.99C24.13 14.99 24.69 14.56 24.88 13.6H25V14.99C25 17.17 26.76 18.99 29 18.99V23C26.82 23 25 24.76 25 27V28.39H24.88C24.69 27.43 24.13 27 23.02 27H16.98C15.87 27 15.31 27.43 15.12 28.39H15V27C15 24.78 13.2 23 11 23V20H9V28C9 28.55 9.45 29 10 29H30C30.55 29 31 28.56 31 28V13.99C31 13.44 30.55 12.99 30 12.99ZM11 27V25C12.09 25 13 25.88 13 27H11ZM29 27H27C27 25.88 27.91 25 29 25V27ZM29 16.99C27.91 16.99 27 16.11 27 14.99H29V16.99Z" fill="#BFDD8C"/>
<path d="M20 25C22.59 25 25 23.37 25 21C25 18.65 22.62 17 20 17C17.41 17 15 18.63 15 21C15 23.35 17.38 25 20 25ZM20 19C21.41 19 23 19.79 23 21C23 22.19 21.44 23 20 23C18.59 23 17 22.21 17 21C17 19.81 18.56 19 20 19Z" fill="#BFDD8C"/>
</svg>
