<svg width="40" height="40" viewBox="0 0 40 40" fill="none" xmlns="http://www.w3.org/2000/svg">
<path fill-rule="evenodd" clip-rule="evenodd" d="M20 40C31.0457 40 40 31.0457 40 20C40 8.9543 31.0457 0 20 0C8.9543 0 0 8.9543 0 20C0 31.0457 8.9543 40 20 40Z" fill="#FAEFFA"/>
<path d="M14 22H18.5V20H14V22Z" fill="#DC94DD"/>
<path fill-rule="evenodd" clip-rule="evenodd" d="M13 12C11.3431 12 10 13.3431 10 15V25C10 26.6569 11.3431 28 13 28H27C28.6569 28 30 26.6569 30 25V15C30 13.3431 28.6569 12 27 12H13ZM12 15C12 14.4477 12.4477 14 13 14H27C27.5523 14 28 14.4477 28 15V16L12 16L12 15ZM12 18L28 18V25C28 25.5523 27.5523 26 27 26H13C12.4477 26 12 25.5523 12 25V18Z" fill="#DC94DD"/>
</svg>
