<svg width="40" height="40" viewBox="0 0 40 40" fill="none" xmlns="http://www.w3.org/2000/svg">
<path fill-rule="evenodd" clip-rule="evenodd" d="M20 40C31.0457 40 40 31.0457 40 20C40 8.9543 31.0457 0 20 0C8.9543 0 0 8.9543 0 20C0 31.0457 8.9543 40 20 40Z" fill="#297C69"/>
<path d="M12 20C12 15.58 15.58 12 20 12C24.42 12 28 15.58 28 20C28 24.42 24.42 28 20 28C15.58 28 12 24.42 12 20ZM20 10C14.48 10 10 14.48 10 20C10 25.52 14.48 30 20 30C25.52 30 30 25.52 30 20C30 14.48 25.52 10 20 10ZM16.21 18.29L14.79 19.71L18.29 23.21C18.68 23.6 19.32 23.6 19.71 23.21L24.71 18.21L23.29 16.79L18.07 22.02L17.98 21.93C18.41 21.13 18.25 20.32 17.6 19.67L16.21 18.29Z" fill="#9BE1CF"/>
</svg>
