<svg width="40" height="40" viewBox="0 0 40 40" fill="none" xmlns="http://www.w3.org/2000/svg">
<path fill-rule="evenodd" clip-rule="evenodd" d="M20 40C31.0457 40 40 31.0457 40 20C40 8.9543 31.0457 0 20 0C8.9543 0 0 8.9543 0 20C0 31.0457 8.9543 40 20 40Z" fill="#286D98"/>
<path d="M19.7983 18H24.8783C25.5083 18 25.8783 17.58 25.8783 17H25.9983V18.5C25.9983 19.33 26.6783 20 27.4983 20H28.9983V20.12C28.4183 20.12 27.9983 20.49 27.9983 21.12V24.88C27.9983 25.51 28.4183 25.88 28.9983 25.88V26L27.4985 26C26.6785 26 25.9985 26.67 25.9985 27.5L25.9983 29H25.8783C25.8783 28.42 25.5083 28 24.8783 28H15.1183C14.4883 28 14.1183 28.42 14.1183 29H13.9983L13.9985 27.5C13.9985 26.67 13.3185 26 12.4985 26L10.9983 26V25.88C11.5783 25.88 11.9983 25.51 11.9983 24.88V22H9.99828V29C9.99828 29.55 10.4483 30 10.9983 30L28.9985 30C29.5585 30 29.9985 29.55 29.9985 29L29.9983 17C29.9983 16.73 29.8983 16.48 29.7083 16.29C29.5183 16.1 29.2683 16 28.9983 16H26.5283L23.4183 11.34C22.8283 10.46 21.9783 10 20.8683 10H9.99828V12H20.8683C21.2783 12 21.5683 12.16 21.7583 12.45L22.9483 14.23C23.5883 15.19 24.0783 15.63 25.5483 15.88V16H19.1083C17.1783 16 16.6383 18.06 18.1483 19.23L20.7183 21.23C21.6783 21.98 21.0183 22.93 20.0283 22.42L14.1783 19.38C12.5083 18.51 11.9883 17.49 11.9883 14.99H9.98828C9.98828 18.21 10.8783 19.93 13.2583 21.16L19.1083 24.19C22.3583 25.87 24.9283 21.96 21.9383 19.65L19.7983 18Z" fill="#99CFF4"/>
</svg>
