<svg width="81" height="80" viewBox="0 0 81 80" fill="none" xmlns="http://www.w3.org/2000/svg">
<path d="M0.5 40C0.5 21.1438 0.5 11.7157 6.35786 5.85786C12.2157 0 21.6438 0 40.5 0C59.3562 0 68.7843 0 74.6421 5.85786C80.5 11.7157 80.5 21.1438 80.5 40C80.5 58.8562 80.5 68.2843 74.6421 74.1421C68.7843 80 59.3562 80 40.5 80C21.6438 80 12.2157 80 6.35786 74.1421C0.5 68.2843 0.5 58.8562 0.5 40Z" fill="#FFEFEF"/>
<path d="M49.93 51.7851L52.287 49.428L45.0981 42.2391C43.8017 40.9428 43.9196 38.9393 45.216 37.6429L52.287 30.5719L49.93 28.2148L42.8589 35.2859C41.7983 36.3466 41.5626 37.7608 42.1518 39.0571L42.034 39.175L31.0738 28.2148L28.7168 30.5719L35.7879 37.6429C37.0842 38.9393 37.2021 40.9428 35.7879 42.357L28.7168 49.428L31.0738 51.7851L38.1449 44.714C39.2055 43.6533 39.4412 42.2391 38.852 40.9428L38.9698 40.8249L49.93 51.7851Z" fill="#FC9696"/>
</svg>
