<svg width="24" height="24" viewBox="0 0 24 24" fill="none" xmlns="http://www.w3.org/2000/svg">
<path d="M12.41 12.01H9V10.01H12C12.6 10.01 13 10.41 13 11.01V16.01H15V18.01H9V16.01H11V13.88C11 12.82 11.53 12.26 12.41 12.13V12.01ZM12 20C16.42 20 20 16.42 20 12C20 7.58 16.42 4 12 4C7.58 4 4 7.58 4 12C4 16.42 7.58 20 12 20ZM12 22C6.48 22 2 17.52 2 12C2 6.48 6.48 2 12 2C17.52 2 22 6.48 22 12C22 17.52 17.52 22 12 22ZM13.5 7.51C13.5 8.34 12.83 9.01 12 9.01C11.17 9.01 10.5 8.34 10.5 7.51C10.5 6.68 11.17 6.01 12 6.01C12.83 6.01 13.5 6.68 13.5 7.51Z" fill="white"/>
</svg>
