<svg width="36" height="36" viewBox="0 0 36 36" fill="none" xmlns="http://www.w3.org/2000/svg">
<g clip-path="url(#clip0_2136_15496)">
<path d="M36 18C36 27.9411 27.9411 36 18 36C8.05887 36 0 27.9411 0 18C0 8.05887 8.05887 0 18 0C27.9411 0 36 8.05887 36 18Z" fill="black"/>
<path d="M13.5692 10.9385C14.6016 10.9385 15.4385 10.1016 15.4385 9.06923C15.4385 8.03688 14.6016 7.2 13.5692 7.2C12.5369 7.2 11.7 8.03688 11.7 9.06923C11.7 10.1016 12.5369 10.9385 13.5692 10.9385Z" fill="white"/>
<path d="M18.0002 10.9385C19.0325 10.9385 19.8694 10.1016 19.8694 9.06923C19.8694 8.03688 19.0325 7.2 18.0002 7.2C16.9678 7.2 16.131 8.03688 16.131 9.06923C16.131 10.1016 16.9678 10.9385 18.0002 10.9385Z" fill="white"/>
<path d="M24.2653 9.06923C24.2653 10.1016 23.4284 10.9385 22.3961 10.9385C21.3637 10.9385 20.5269 10.1016 20.5269 9.06923C20.5269 8.03688 21.3637 7.2 22.3961 7.2C23.4284 7.2 24.2653 8.03688 24.2653 9.06923Z" fill="white"/>
<path fill-rule="evenodd" clip-rule="evenodd" d="M26.2384 20.6308C26.2384 25.1426 22.581 28.8 18.0692 28.8C13.5575 28.8 9.9 25.1426 9.9 20.6308C9.9 16.1191 13.5575 12.4616 18.0692 12.4616C22.581 12.4616 26.2384 16.1191 26.2384 20.6308ZM22.5001 20.6308C22.5001 23.0778 20.5164 25.0616 18.0694 25.0616C15.6223 25.0616 13.6386 23.0778 13.6386 20.6308C13.6386 18.1837 15.6223 16.2 18.0694 16.2C20.5164 16.2 22.5001 18.1837 22.5001 20.6308Z" fill="white"/>
</g>
<defs>
<clipPath id="clip0_2136_15496">
<rect width="36" height="36" fill="white"/>
</clipPath>
</defs>
</svg>
