<svg width="12" height="12" viewBox="0 0 12 12" fill="none" xmlns="http://www.w3.org/2000/svg">
<path d="M4.53 0.964864C3.585 0.959864 2.665 1.86986 3.085 2.99986H1.5C1.23478 2.99986 0.98043 3.10522 0.792893 3.29276C0.605357 3.48029 0.5 3.73465 0.5 3.99986V4.99986C0.5 5.13247 0.552678 5.25965 0.646447 5.35342C0.740215 5.44719 0.867392 5.49986 1 5.49986H5.5V3.99986H6.5V5.49986H11C11.1326 5.49986 11.2598 5.44719 11.3536 5.35342C11.4473 5.25965 11.5 5.13247 11.5 4.99986V3.99986C11.5 3.73465 11.3946 3.48029 11.2071 3.29276C11.0196 3.10522 10.7652 2.99986 10.5 2.99986H8.915C9.5 1.36486 7.3 0.209864 6.285 1.61986L6 1.99986L5.715 1.60986C5.4 1.16486 4.965 0.969864 4.53 0.964864ZM4.5 1.99986C4.945 1.99986 5.17 2.53986 4.855 2.85486C4.54 3.16986 4 2.94486 4 2.49986C4 2.36726 4.05268 2.24008 4.14645 2.14631C4.24021 2.05254 4.36739 1.99986 4.5 1.99986ZM7.5 1.99986C7.945 1.99986 8.17 2.53986 7.855 2.85486C7.54 3.16986 7 2.94486 7 2.49986C7 2.36726 7.05268 2.24008 7.14645 2.14631C7.24021 2.05254 7.36739 1.99986 7.5 1.99986ZM1 5.99986V9.99986C1 10.2651 1.10536 10.5194 1.29289 10.707C1.48043 10.8945 1.73478 10.9999 2 10.9999H10C10.2652 10.9999 10.5196 10.8945 10.7071 10.707C10.8946 10.5194 11 10.2651 11 9.99986V5.99986H6.5V9.99986H5.5V5.99986H1Z" fill="#7DD27C"/>
</svg>
